<svg xmlns="http://www.w3.org/2000/svg" width="17" height="20" viewBox="0 0 17 20" fill="none">
    <path d="M14.4536 2.11627C14.4382 2.11479 14.4251 2.10529 14.4089 2.10529H7.72951C6.70182 2.10529 5.86548 3.08922 5.86548 4.29827V5.02922C5.86548 5.43276 6.14377 5.7603 6.48678 5.7603C6.8298 5.7603 7.10809 5.43276 7.10809 5.02922V4.29827C7.10809 3.89553 7.38707 3.56732 7.72951 3.56732H10.6243L10.4348 3.64188C9.93155 3.84651 9.59355 4.40427 9.59355 5.02922V15.9941H7.72951C7.38707 15.9941 7.10809 15.6659 7.10809 15.2632V13.8011C7.10809 13.3977 6.8298 13.0702 6.48678 13.0702C6.14377 13.0702 5.86548 13.3977 5.86548 13.8011V15.2632C5.86548 16.4722 6.70182 17.4562 7.72951 17.4562H9.59355V18.1871C9.59355 18.9934 10.1508 19.6491 10.8362 19.6491C10.9691 19.6491 11.0953 19.6265 11.232 19.5767L14.965 18.1125C15.469 17.9079 15.807 17.3502 15.807 16.7252V3.56732C15.807 2.71497 15.1825 2.04679 14.4536 2.11627Z" fill="#292B5C"/>
    <path d="M7.54747 8.89836L5.06213 5.97439C4.88441 5.76534 4.61727 5.70243 4.38485 5.8158C4.15308 5.92903 4.00154 6.19594 4.00154 6.4912V8.68418H1.51608C1.17319 8.68418 0.894775 9.01173 0.894775 9.41513C0.894775 9.81867 1.17319 10.1462 1.51608 10.1462H4.00154V12.3392C4.00154 12.6345 4.15308 12.9012 4.38485 13.0146C4.61727 13.1278 4.88441 13.0651 5.06213 12.856L7.54747 9.93194C7.79048 9.64615 7.79048 9.18425 7.54747 8.89836Z" fill="#292B5C"/>
</svg>